<?xml version="1.0" standalone="no"?>
<!DOCTYPE svg PUBLIC "-//W3C//DTD SVG 20010904//EN"
 "http://www.w3.org/TR/2001/REC-SVG-20010904/DTD/svg10.dtd">
<svg version="1.0" xmlns="http://www.w3.org/2000/svg"
 width="512.000000pt" height="512.000000pt" viewBox="0 0 512.000000 512.000000"
 preserveAspectRatio="xMidYMid meet">

<g transform="translate(0.000000,512.000000) scale(0.100000,-0.100000)"
fill="#000000" stroke="none">
<path d="M2503 2617 c-2317 -2316 -2503 -2504 -2503 -2535 0 -44 38 -82 82
-82 31 0 219 186 2535 2503 2317 2316 2503 2504 2503 2535 0 22 -8 41 -25 57
-16 17 -35 25 -57 25 -31 0 -219 -186 -2535 -2503z"/>
<path d="M1317 4795 l-117 -235 240 0 240 0 -117 235 c-65 129 -120 235 -123
235 -3 0 -58 -106 -123 -235z"/>
<path d="M482 4629 c3 -8 41 -121 84 -251 43 -131 81 -238 84 -238 9 0 334
329 330 333 -3 2 -111 39 -240 82 -129 43 -241 80 -249 83 -9 4 -13 0 -9 -9z"/>
<path d="M2145 4558 c-132 -44 -242 -83 -245 -85 -4 -4 321 -333 330 -333 3 0
41 107 84 238 43 130 81 243 84 250 2 6 0 12 -4 11 -5 0 -117 -37 -249 -81z"/>
<path d="M1300 4304 c-111 -23 -224 -86 -311 -173 -251 -252 -252 -650 0 -901
253 -252 651 -253 901 -1 253 254 253 648 0 902 -155 156 -374 220 -590 173z"/>
<path d="M323 3802 c-128 -64 -233 -119 -233 -122 0 -3 106 -58 235 -123 l235
-117 0 240 c0 132 -1 240 -2 239 -2 0 -108 -53 -235 -117z"/>
<path d="M2320 3680 l0 -240 235 117 c129 65 235 120 235 123 0 3 -106 58
-235 123 l-235 117 0 -240z"/>
<path d="M563 2973 c-46 -136 -81 -248 -80 -250 4 -3 489 157 497 164 4 4
-321 333 -330 333 -3 0 -42 -111 -87 -247z"/>
<path d="M2060 3055 c-90 -90 -162 -166 -160 -168 8 -7 493 -167 497 -164 4 5
-161 497 -167 497 -3 0 -79 -74 -170 -165z"/>
<path d="M3855 3026 c-101 -44 -125 -178 -46 -257 112 -113 296 -12 267 146
-18 94 -131 151 -221 111z"/>
<path d="M1317 2565 c65 -129 120 -235 123 -235 3 0 58 106 123 235 l117 235
-240 0 -240 0 117 -235z"/>
<path d="M3237 2299 c-29 -61 -56 -99 -107 -149 -50 -51 -88 -78 -149 -107
-44 -21 -80 -40 -80 -43 0 -3 36 -22 80 -43 112 -53 203 -144 256 -256 21 -44
40 -80 43 -80 3 0 23 37 44 81 49 104 140 197 242 251 40 20 79 37 88 37 9 0
16 5 16 10 0 6 -6 10 -14 10 -7 0 -46 16 -85 36 -104 52 -198 148 -248 252
-21 45 -40 81 -43 81 -3 0 -22 -36 -43 -80z"/>
<path d="M4207 2238 c63 -249 26 -513 -103 -731 -66 -111 -220 -265 -331 -331
-219 -129 -485 -167 -730 -103 -51 13 -93 20 -93 15 0 -17 73 -154 108 -203
297 -411 853 -525 1283 -263 112 68 258 215 320 323 103 177 134 294 133 500
-2 205 -33 318 -139 499 -44 77 -192 234 -266 284 -50 34 -182 102 -196 102
-5 0 1 -42 14 -92z"/>
<path d="M2175 946 c-101 -44 -125 -178 -46 -257 65 -65 157 -65 222 0 124
124 -15 327 -176 257z"/>
</g>
</svg>
