<svg id="ef6gB42avTs1" xmlns="http://www.w3.org/2000/svg" xmlns:xlink="http://www.w3.org/1999/xlink" viewBox="0 0 512 512" shape-rendering="geometricPrecision" text-rendering="geometricPrecision" project-id="5c0a669fa51045a3bf55275c5edaffc6" export-id="9715790fc55d4d808795c10209bf4fb6" cached="false"><g transform="matrix(.1 0 0-.1 0 512)"><path d="M2503,2617C186,301,0,113,0,82C0,38,38,0,82,0c31,0,219,186,2535,2503C4934,4819,5120,5007,5120,5038c0,22-8,41-25,57-16,17-35,25-57,25-31,0-219-186-2535-2503Z" fill="#a2aabc"/><path d="M1317,4795l-117-235h240h240l-117,235c-65,129-120,235-123,235s-58-106-123-235Z" fill="#a2aabc"/><path d="M482,4629c3-8,41-121,84-251c43-131,81-238,84-238c9,0,334,329,330,333-3,2-111,39-240,82s-241,80-249,83c-9,4-13,0-9-9Z" fill="#a2aabc"/><path d="M2145,4558c-132-44-242-83-245-85-4-4,321-333,330-333c3,0,41,107,84,238c43,130,81,243,84,250c2,6,0,12-4,11-5,0-117-37-249-81Z" fill="#a2aabc"/><path d="M1300,4304c-111-23-224-86-311-173-251-252-252-650,0-901c253-252,651-253,901-1c253,254,253,648,0,902-155,156-374,220-590,173Z" fill="#a2aabc"/><path d="M323,3802c-128-64-233-119-233-122s106-58,235-123l235-117v240c0,132-1,240-2,239-2,0-108-53-235-117Z" fill="#a2aabc"/><path d="M2320,3680v-240l235,117c129,65,235,120,235,123s-106,58-235,123l-235,117v-240Z" fill="#a2aabc"/><path d="M563,2973c-46-136-81-248-80-250c4-3,489,157,497,164c4,4-321,333-330,333-3,0-42-111-87-247Z" fill="#a2aabc"/><path d="M2060,3055c-90-90-162-166-160-168c8-7,493-167,497-164c4,5-161,497-167,497-3,0-79-74-170-165Z" fill="#a2aabc"/><path d="M3855,3026c-101-44-125-178-46-257c112-113,296-12,267,146-18,94-131,151-221,111Z" fill="#a2aabc"/><path d="M1317,2565c65-129,120-235,123-235s58,106,123,235l117,235h-240-240l117-235Z" fill="#a2aabc"/><path d="M3237,2299c-29-61-56-99-107-149-50-51-88-78-149-107-44-21-80-40-80-43s36-22,80-43c112-53,203-144,256-256c21-44,40-80,43-80s23,37,44,81c49,104,140,197,242,251c40,20,79,37,88,37s16,5,16,10c0,6-6,10-14,10-7,0-46,16-85,36-104,52-198,148-248,252-21,45-40,81-43,81s-22-36-43-80Z" fill="#a2aabc"/><path d="M4207,2238c63-249,26-513-103-731-66-111-220-265-331-331-219-129-485-167-730-103-51,13-93,20-93,15c0-17,73-154,108-203c297-411,853-525,1283-263c112,68,258,215,320,323c103,177,134,294,133,500-2,205-33,318-139,499-44,77-192,234-266,284-50,34-182,102-196,102-5,0,1-42,14-92Z" fill="#a2aabc"/><path d="M2175,946c-101-44-125-178-46-257c65-65,157-65,222,0c124,124-15,327-176,257Z" fill="#a2aabc"/></g></svg>
