<?xml version="1.0"?><!DOCTYPE svg  PUBLIC '-//W3C//DTD SVG 1.1//EN'  'http://www.w3.org/Graphics/SVG/1.1/DTD/svg11.dtd'><svg aria-labelledby="simpleicons-linkedin-icon" enable-background="new 0 0 24 24" height="3.33333in" role="img" style="shape-rendering:geometricPrecision; text-rendering:geometricPrecision; image-rendering:optimizeQuality; fill-rule:evenodd; clip-rule:evenodd" version="1.1" viewBox="0 0 3333 3333" width="3.33333in" xml:space="preserve" xmlns="http://www.w3.org/2000/svg" xmlns:xlink="http://www.w3.org/1999/xlink"><defs><style type="text/css">
   <![CDATA[
    .fil0 {fill:black}
    .fil1 {fill:white}
   ]]>
  </style></defs><g id="Layer_x0020_1"><circle class="fil0" cx="1667" cy="1667" r="1667"/><g id="_603497792"><path class="fil1" d="M2192 2193l-221 0 0 -347c0,-83 -2,-189 -115,-189 -115,0 -133,90 -133,183l0 353 -221 0 0 -713 212 0 0 97 3 0c30,-56 102,-115 210,-115 224,0 265,147 265,339l0 392 0 0zm-940 -811c-71,0 -128,-57 -128,-128 0,-71 57,-128 128,-128 71,0 129,57 129,128 0,71 -58,128 -129,128zm111 811l-222 0 0 -713 222 0 0 713zm940 -1273l-1273 0c-61,0 -110,48 -110,108l0 1278c0,59 49,107 110,107l1273 0c61,0 110,-48 110,-107l0 -1278c0,-60 -49,-108 -110,-108l0 0z"/></g></g></svg>